<svg width="22" height="10" viewBox="0 0 22 10" fill="none" xmlns="http://www.w3.org/2000/svg">
<rect width="22" height="10" fill="white"/>
<path d="M0.63 9V0.899999H2.64C3.12667 0.899999 3.51333 0.989999 3.8 1.17C4.09333 1.34333 4.30667 1.59667 4.44 1.93C4.57333 2.26333 4.64 2.66667 4.64 3.14C4.64 3.56667 4.56333 3.93667 4.41 4.25C4.26333 4.56333 4.04333 4.80667 3.75 4.98C3.45667 5.14667 3.09 5.23 2.65 5.23H1.76V9H0.63ZM1.76 4.42H2.28C2.60667 4.42 2.86333 4.38333 3.05 4.31C3.23667 4.23667 3.37 4.11 3.45 3.93C3.53 3.74333 3.57 3.48333 3.57 3.15C3.57 2.76333 3.54 2.46667 3.48 2.26C3.42667 2.05333 3.31 1.91 3.13 1.83C2.95 1.75 2.67 1.71 2.29 1.71H1.76V4.42ZM4.61383 9L6.33383 0.899999H7.42383L9.15383 9H8.08383L7.71383 6.96H6.06383L5.67383 9H4.61383ZM6.21383 6.15H7.56383L6.88383 2.5L6.21383 6.15ZM10.5434 9V1.74H9.17344V0.899999H13.0034V1.74H11.6734V9H10.5434ZM14.6743 9V1.74H13.3043V0.899999H17.1343V1.74H15.8043V9H14.6743ZM19.8252 9.09C19.3585 9.09 18.9685 8.99 18.6552 8.79C18.3485 8.59 18.1152 8.31333 17.9552 7.96C17.7952 7.60667 17.7018 7.19667 17.6752 6.73L18.6752 6.46C18.6952 6.74667 18.7385 7.02333 18.8052 7.29C18.8785 7.55667 18.9952 7.77667 19.1552 7.95C19.3152 8.11667 19.5385 8.2 19.8252 8.2C20.1185 8.2 20.3385 8.12 20.4852 7.96C20.6385 7.79333 20.7152 7.55667 20.7152 7.25C20.7152 6.88333 20.6318 6.59 20.4652 6.37C20.2985 6.14333 20.0885 5.91667 19.8352 5.69L18.4752 4.49C18.2085 4.25667 18.0118 4.00333 17.8852 3.73C17.7585 3.45 17.6952 3.10667 17.6952 2.7C17.6952 2.10667 17.8652 1.64667 18.2052 1.32C18.5452 0.993333 19.0085 0.83 19.5952 0.83C19.9152 0.83 20.1952 0.873333 20.4352 0.96C20.6818 1.04 20.8852 1.16667 21.0452 1.34C21.2118 1.51333 21.3418 1.73333 21.4352 2C21.5352 2.26 21.6018 2.56667 21.6352 2.92L20.6752 3.18C20.6552 2.91333 20.6152 2.67 20.5552 2.45C20.4952 2.22333 20.3885 2.04333 20.2352 1.91C20.0885 1.77 19.8752 1.7 19.5952 1.7C19.3152 1.7 19.0952 1.77667 18.9352 1.93C18.7818 2.07667 18.7052 2.29667 18.7052 2.59C18.7052 2.83667 18.7452 3.04 18.8252 3.2C18.9118 3.36 19.0485 3.52333 19.2352 3.69L20.6052 4.89C20.9118 5.15667 21.1818 5.47667 21.4152 5.85C21.6485 6.21667 21.7652 6.65333 21.7652 7.16C21.7652 7.56 21.6818 7.90667 21.5152 8.2C21.3485 8.48667 21.1185 8.70667 20.8252 8.86C20.5385 9.01333 20.2052 9.09 19.8252 9.09Z" fill="black"/>
</svg>
