<svg width="68" height="28" viewBox="0 0 68 28" fill="none" xmlns="http://www.w3.org/2000/svg">
<rect width="68" height="28" fill="white"/>
<path d="M0.016 27V1.08H6.448C8.00533 1.08 9.24267 1.368 10.16 1.944C11.0987 2.49867 11.7813 3.30933 12.208 4.376C12.6347 5.44267 12.848 6.73333 12.848 8.248C12.848 9.61333 12.6027 10.7973 12.112 11.8C11.6427 12.8027 10.9387 13.5813 10 14.136C9.06133 14.6693 7.888 14.936 6.48 14.936H3.632V27H0.016ZM3.632 12.344H5.296C6.34133 12.344 7.16267 12.2267 7.76 11.992C8.35733 11.7573 8.784 11.352 9.04 10.776C9.296 10.1787 9.424 9.34667 9.424 8.28C9.424 7.04267 9.328 6.09333 9.136 5.432C8.96533 4.77067 8.592 4.312 8.016 4.056C7.44 3.8 6.544 3.672 5.328 3.672H3.632V12.344ZM12.7643 27L18.2683 1.08H21.7563L27.2923 27H23.8683L22.6843 20.472H17.4043L16.1562 27H12.7643ZM17.8843 17.88H22.2043L20.0283 6.2L17.8843 17.88ZM31.739 27V3.768H27.355V1.08H39.611V3.768H35.355V27H31.739ZM44.9578 27V3.768H40.5738V1.08H52.8298V3.768H48.5738V27H44.9578ZM61.4405 27.288C59.9472 27.288 58.6992 26.968 57.6965 26.328C56.7152 25.688 55.9685 24.8027 55.4565 23.672C54.9445 22.5413 54.6458 21.2293 54.5605 19.736L57.7605 18.872C57.8245 19.7893 57.9632 20.6747 58.1765 21.528C58.4112 22.3813 58.7845 23.0853 59.2965 23.64C59.8085 24.1733 60.5232 24.44 61.4405 24.44C62.3792 24.44 63.0832 24.184 63.5525 23.672C64.0432 23.1387 64.2885 22.3813 64.2885 21.4C64.2885 20.2267 64.0218 19.288 63.4885 18.584C62.9552 17.8587 62.2832 17.1333 61.4725 16.408L57.1205 12.568C56.2672 11.8213 55.6378 11.0107 55.2325 10.136C54.8272 9.24 54.6245 8.14133 54.6245 6.84C54.6245 4.94133 55.1685 3.46933 56.2565 2.424C57.3445 1.37867 58.8272 0.855999 60.7045 0.855999C61.7285 0.855999 62.6245 0.994666 63.3925 1.272C64.1818 1.528 64.8325 1.93333 65.3445 2.488C65.8778 3.04267 66.2938 3.74667 66.5925 4.6C66.9125 5.432 67.1258 6.41333 67.2325 7.544L64.1605 8.376C64.0965 7.52267 63.9685 6.744 63.7765 6.04C63.5845 5.31467 63.2432 4.73867 62.7525 4.312C62.2832 3.864 61.6005 3.64 60.7045 3.64C59.8085 3.64 59.1045 3.88533 58.5925 4.376C58.1018 4.84533 57.8565 5.54933 57.8565 6.488C57.8565 7.27733 57.9845 7.928 58.2405 8.44C58.5178 8.952 58.9552 9.47467 59.5525 10.008L63.9365 13.848C64.9178 14.7013 65.7818 15.7253 66.5285 16.92C67.2752 18.0933 67.6485 19.4907 67.6485 21.112C67.6485 22.392 67.3818 23.5013 66.8485 24.44C66.3152 25.3573 65.5792 26.0613 64.6405 26.552C63.7232 27.0427 62.6565 27.288 61.4405 27.288Z" fill="black"/>
</svg>
